<mxfile host="Electron" agent="Mozilla/5.0 (Windows NT 10.0; Win64; x64) AppleWebKit/537.36 (KHTML, like Gecko) draw.io/24.7.5 Chrome/126.0.6478.183 Electron/31.3.0 Safari/537.36" version="24.7.5">
  <diagram id="C5RBs43oDa-KdzZeNtuy" name="Page-1">
    <mxGraphModel dx="1845" dy="2944" grid="1" gridSize="10" guides="1" tooltips="1" connect="1" arrows="1" fold="1" page="1" pageScale="1" pageWidth="827" pageHeight="1169" math="0" shadow="0">
      <root>
        <mxCell id="WIyWlLk6GJQsqaUBKTNV-0" />
        <mxCell id="WIyWlLk6GJQsqaUBKTNV-1" parent="WIyWlLk6GJQsqaUBKTNV-0" />
        <mxCell id="zkfFHV4jXpPFQw0GAbJ--0" value="Evento" style="swimlane;fontStyle=1;align=center;verticalAlign=top;childLayout=stackLayout;horizontal=1;startSize=26;horizontalStack=0;resizeParent=1;resizeLast=0;collapsible=1;marginBottom=0;rounded=0;shadow=0;strokeWidth=2;" parent="WIyWlLk6GJQsqaUBKTNV-1" vertex="1">
          <mxGeometry x="20" y="240" width="170" height="320" as="geometry">
            <mxRectangle x="230" y="140" width="160" height="26" as="alternateBounds" />
          </mxGeometry>
        </mxCell>
        <mxCell id="zkfFHV4jXpPFQw0GAbJ--1" value="- id: UUID" style="text;align=left;verticalAlign=top;spacingLeft=4;spacingRight=4;overflow=hidden;rotatable=0;points=[[0,0.5],[1,0.5]];portConstraint=eastwest;" parent="zkfFHV4jXpPFQw0GAbJ--0" vertex="1">
          <mxGeometry y="26" width="170" height="26" as="geometry" />
        </mxCell>
        <mxCell id="zkfFHV4jXpPFQw0GAbJ--2" value="- nombre: String" style="text;align=left;verticalAlign=top;spacingLeft=4;spacingRight=4;overflow=hidden;rotatable=0;points=[[0,0.5],[1,0.5]];portConstraint=eastwest;rounded=0;shadow=0;html=0;" parent="zkfFHV4jXpPFQw0GAbJ--0" vertex="1">
          <mxGeometry y="52" width="170" height="26" as="geometry" />
        </mxCell>
        <mxCell id="zkfFHV4jXpPFQw0GAbJ--3" value="- descripcion: String" style="text;align=left;verticalAlign=top;spacingLeft=4;spacingRight=4;overflow=hidden;rotatable=0;points=[[0,0.5],[1,0.5]];portConstraint=eastwest;rounded=0;shadow=0;html=0;" parent="zkfFHV4jXpPFQw0GAbJ--0" vertex="1">
          <mxGeometry y="78" width="170" height="26" as="geometry" />
        </mxCell>
        <mxCell id="b6IO7Tw6n1hfaN_o9Tpw-0" value="- fechaYHora: LocalDateTime" style="text;align=left;verticalAlign=top;spacingLeft=4;spacingRight=4;overflow=hidden;rotatable=0;points=[[0,0.5],[1,0.5]];portConstraint=eastwest;rounded=0;shadow=0;html=0;" parent="zkfFHV4jXpPFQw0GAbJ--0" vertex="1">
          <mxGeometry y="104" width="170" height="26" as="geometry" />
        </mxCell>
        <mxCell id="b6IO7Tw6n1hfaN_o9Tpw-1" value="- ubicacion: String" style="text;align=left;verticalAlign=top;spacingLeft=4;spacingRight=4;overflow=hidden;rotatable=0;points=[[0,0.5],[1,0.5]];portConstraint=eastwest;rounded=0;shadow=0;html=0;" parent="zkfFHV4jXpPFQw0GAbJ--0" vertex="1">
          <mxGeometry y="130" width="170" height="26" as="geometry" />
        </mxCell>
        <mxCell id="b6IO7Tw6n1hfaN_o9Tpw-2" value="- capacidad: int" style="text;align=left;verticalAlign=top;spacingLeft=4;spacingRight=4;overflow=hidden;rotatable=0;points=[[0,0.5],[1,0.5]];portConstraint=eastwest;rounded=0;shadow=0;html=0;" parent="zkfFHV4jXpPFQw0GAbJ--0" vertex="1">
          <mxGeometry y="156" width="170" height="26" as="geometry" />
        </mxCell>
        <mxCell id="b6IO7Tw6n1hfaN_o9Tpw-3" value="- chefACargo: Chef" style="text;align=left;verticalAlign=top;spacingLeft=4;spacingRight=4;overflow=hidden;rotatable=0;points=[[0,0.5],[1,0.5]];portConstraint=eastwest;rounded=0;shadow=0;html=0;" parent="zkfFHV4jXpPFQw0GAbJ--0" vertex="1">
          <mxGeometry y="182" width="170" height="26" as="geometry" />
        </mxCell>
        <mxCell id="wT4c7gh8vurKFUiNGdvU-14" value="- numParticipantes: int" style="text;align=left;verticalAlign=top;spacingLeft=4;spacingRight=4;overflow=hidden;rotatable=0;points=[[0,0.5],[1,0.5]];portConstraint=eastwest;rounded=0;shadow=0;html=0;" parent="zkfFHV4jXpPFQw0GAbJ--0" vertex="1">
          <mxGeometry y="208" width="170" height="26" as="geometry" />
        </mxCell>
        <mxCell id="zkfFHV4jXpPFQw0GAbJ--4" value="" style="line;html=1;strokeWidth=1;align=left;verticalAlign=middle;spacingTop=-1;spacingLeft=3;spacingRight=3;rotatable=0;labelPosition=right;points=[];portConstraint=eastwest;" parent="zkfFHV4jXpPFQw0GAbJ--0" vertex="1">
          <mxGeometry y="234" width="170" height="8" as="geometry" />
        </mxCell>
        <mxCell id="JpKr2Qf1cNr2t3Nfq3L3-31" value="+ Constructores" style="text;align=left;verticalAlign=top;spacingLeft=4;spacingRight=4;overflow=hidden;rotatable=0;points=[[0,0.5],[1,0.5]];portConstraint=eastwest;" parent="zkfFHV4jXpPFQw0GAbJ--0" vertex="1">
          <mxGeometry y="242" width="170" height="26" as="geometry" />
        </mxCell>
        <mxCell id="zkfFHV4jXpPFQw0GAbJ--5" value="+ getters&amp;setters" style="text;align=left;verticalAlign=top;spacingLeft=4;spacingRight=4;overflow=hidden;rotatable=0;points=[[0,0.5],[1,0.5]];portConstraint=eastwest;" parent="zkfFHV4jXpPFQw0GAbJ--0" vertex="1">
          <mxGeometry y="268" width="170" height="26" as="geometry" />
        </mxCell>
        <mxCell id="wT4c7gh8vurKFUiNGdvU-17" value="+ incNumParticipantes():void" style="text;align=left;verticalAlign=top;spacingLeft=4;spacingRight=4;overflow=hidden;rotatable=0;points=[[0,0.5],[1,0.5]];portConstraint=eastwest;" parent="zkfFHV4jXpPFQw0GAbJ--0" vertex="1">
          <mxGeometry y="294" width="170" height="26" as="geometry" />
        </mxCell>
        <mxCell id="b6IO7Tw6n1hfaN_o9Tpw-4" value="Chef" style="swimlane;fontStyle=1;align=center;verticalAlign=top;childLayout=stackLayout;horizontal=1;startSize=26;horizontalStack=0;resizeParent=1;resizeLast=0;collapsible=1;marginBottom=0;rounded=0;shadow=0;strokeWidth=2;" parent="WIyWlLk6GJQsqaUBKTNV-1" vertex="1">
          <mxGeometry x="-330" y="240" width="200" height="190" as="geometry">
            <mxRectangle x="230" y="140" width="160" height="26" as="alternateBounds" />
          </mxGeometry>
        </mxCell>
        <mxCell id="b6IO7Tw6n1hfaN_o9Tpw-5" value="- dni: int" style="text;align=left;verticalAlign=top;spacingLeft=4;spacingRight=4;overflow=hidden;rotatable=0;points=[[0,0.5],[1,0.5]];portConstraint=eastwest;" parent="b6IO7Tw6n1hfaN_o9Tpw-4" vertex="1">
          <mxGeometry y="26" width="200" height="26" as="geometry" />
        </mxCell>
        <mxCell id="b6IO7Tw6n1hfaN_o9Tpw-6" value="- nombre: String" style="text;align=left;verticalAlign=top;spacingLeft=4;spacingRight=4;overflow=hidden;rotatable=0;points=[[0,0.5],[1,0.5]];portConstraint=eastwest;rounded=0;shadow=0;html=0;" parent="b6IO7Tw6n1hfaN_o9Tpw-4" vertex="1">
          <mxGeometry y="52" width="200" height="26" as="geometry" />
        </mxCell>
        <mxCell id="b6IO7Tw6n1hfaN_o9Tpw-7" value="- especialidad: EspecialidadEnum" style="text;align=left;verticalAlign=top;spacingLeft=4;spacingRight=4;overflow=hidden;rotatable=0;points=[[0,0.5],[1,0.5]];portConstraint=eastwest;rounded=0;shadow=0;html=0;" parent="b6IO7Tw6n1hfaN_o9Tpw-4" vertex="1">
          <mxGeometry y="78" width="200" height="26" as="geometry" />
        </mxCell>
        <mxCell id="b6IO7Tw6n1hfaN_o9Tpw-8" value="- eventosACargo: List&lt;Evento&gt;" style="text;align=left;verticalAlign=top;spacingLeft=4;spacingRight=4;overflow=hidden;rotatable=0;points=[[0,0.5],[1,0.5]];portConstraint=eastwest;rounded=0;shadow=0;html=0;" parent="b6IO7Tw6n1hfaN_o9Tpw-4" vertex="1">
          <mxGeometry y="104" width="200" height="26" as="geometry" />
        </mxCell>
        <mxCell id="b6IO7Tw6n1hfaN_o9Tpw-12" value="" style="line;html=1;strokeWidth=1;align=left;verticalAlign=middle;spacingTop=-1;spacingLeft=3;spacingRight=3;rotatable=0;labelPosition=right;points=[];portConstraint=eastwest;" parent="b6IO7Tw6n1hfaN_o9Tpw-4" vertex="1">
          <mxGeometry y="130" width="200" height="8" as="geometry" />
        </mxCell>
        <mxCell id="b6IO7Tw6n1hfaN_o9Tpw-13" value="+ Constructores" style="text;align=left;verticalAlign=top;spacingLeft=4;spacingRight=4;overflow=hidden;rotatable=0;points=[[0,0.5],[1,0.5]];portConstraint=eastwest;" parent="b6IO7Tw6n1hfaN_o9Tpw-4" vertex="1">
          <mxGeometry y="138" width="200" height="26" as="geometry" />
        </mxCell>
        <mxCell id="JpKr2Qf1cNr2t3Nfq3L3-30" value="+ getters&amp;setters" style="text;align=left;verticalAlign=top;spacingLeft=4;spacingRight=4;overflow=hidden;rotatable=0;points=[[0,0.5],[1,0.5]];portConstraint=eastwest;" parent="b6IO7Tw6n1hfaN_o9Tpw-4" vertex="1">
          <mxGeometry y="164" width="200" height="26" as="geometry" />
        </mxCell>
        <mxCell id="b6IO7Tw6n1hfaN_o9Tpw-14" value="EspecialidadEnum&#xa;&lt;Enum&gt;" style="swimlane;fontStyle=3;align=center;verticalAlign=top;childLayout=stackLayout;horizontal=1;startSize=40;horizontalStack=0;resizeParent=1;resizeLast=0;collapsible=1;marginBottom=0;rounded=0;shadow=0;strokeWidth=1;" parent="WIyWlLk6GJQsqaUBKTNV-1" vertex="1">
          <mxGeometry x="-400" y="548" width="340" height="140" as="geometry">
            <mxRectangle x="230" y="140" width="160" height="26" as="alternateBounds" />
          </mxGeometry>
        </mxCell>
        <mxCell id="b6IO7Tw6n1hfaN_o9Tpw-15" value="+ PASTELERIA" style="text;align=left;verticalAlign=top;spacingLeft=4;spacingRight=4;overflow=hidden;rotatable=0;points=[[0,0.5],[1,0.5]];portConstraint=eastwest;" parent="b6IO7Tw6n1hfaN_o9Tpw-14" vertex="1">
          <mxGeometry y="40" width="340" height="26" as="geometry" />
        </mxCell>
        <mxCell id="b6IO7Tw6n1hfaN_o9Tpw-24" value="+ COCINA_INTERNACIONAL" style="text;align=left;verticalAlign=top;spacingLeft=4;spacingRight=4;overflow=hidden;rotatable=0;points=[[0,0.5],[1,0.5]];portConstraint=eastwest;" parent="b6IO7Tw6n1hfaN_o9Tpw-14" vertex="1">
          <mxGeometry y="66" width="340" height="26" as="geometry" />
        </mxCell>
        <mxCell id="wT4c7gh8vurKFUiNGdvU-2" value="" style="line;html=1;strokeWidth=1;align=left;verticalAlign=middle;spacingTop=-1;spacingLeft=3;spacingRight=3;rotatable=0;labelPosition=right;points=[];portConstraint=eastwest;" parent="b6IO7Tw6n1hfaN_o9Tpw-14" vertex="1">
          <mxGeometry y="92" width="340" height="8" as="geometry" />
        </mxCell>
        <mxCell id="wT4c7gh8vurKFUiNGdvU-3" value="+ elegirEspecialidad(Scanner sc): EspecialidadEnum" style="text;align=left;verticalAlign=top;spacingLeft=4;spacingRight=4;overflow=hidden;rotatable=0;points=[[0,0.5],[1,0.5]];portConstraint=eastwest;rounded=0;shadow=0;html=0;fontStyle=4" parent="b6IO7Tw6n1hfaN_o9Tpw-14" vertex="1">
          <mxGeometry y="100" width="340" height="26" as="geometry" />
        </mxCell>
        <mxCell id="b6IO7Tw6n1hfaN_o9Tpw-25" value="Participante" style="swimlane;fontStyle=1;align=center;verticalAlign=top;childLayout=stackLayout;horizontal=1;startSize=26;horizontalStack=0;resizeParent=1;resizeLast=0;collapsible=1;marginBottom=0;rounded=0;shadow=0;strokeWidth=2;" parent="WIyWlLk6GJQsqaUBKTNV-1" vertex="1">
          <mxGeometry x="324" y="240" width="180" height="190" as="geometry">
            <mxRectangle x="230" y="140" width="160" height="26" as="alternateBounds" />
          </mxGeometry>
        </mxCell>
        <mxCell id="b6IO7Tw6n1hfaN_o9Tpw-26" value="- dni: int" style="text;align=left;verticalAlign=top;spacingLeft=4;spacingRight=4;overflow=hidden;rotatable=0;points=[[0,0.5],[1,0.5]];portConstraint=eastwest;" parent="b6IO7Tw6n1hfaN_o9Tpw-25" vertex="1">
          <mxGeometry y="26" width="180" height="26" as="geometry" />
        </mxCell>
        <mxCell id="b6IO7Tw6n1hfaN_o9Tpw-27" value="- nombre: String" style="text;align=left;verticalAlign=top;spacingLeft=4;spacingRight=4;overflow=hidden;rotatable=0;points=[[0,0.5],[1,0.5]];portConstraint=eastwest;rounded=0;shadow=0;html=0;" parent="b6IO7Tw6n1hfaN_o9Tpw-25" vertex="1">
          <mxGeometry y="52" width="180" height="26" as="geometry" />
        </mxCell>
        <mxCell id="b6IO7Tw6n1hfaN_o9Tpw-28" value="- intereses: List&lt;ComidaEnum&gt;" style="text;align=left;verticalAlign=top;spacingLeft=4;spacingRight=4;overflow=hidden;rotatable=0;points=[[0,0.5],[1,0.5]];portConstraint=eastwest;rounded=0;shadow=0;html=0;" parent="b6IO7Tw6n1hfaN_o9Tpw-25" vertex="1">
          <mxGeometry y="78" width="180" height="26" as="geometry" />
        </mxCell>
        <mxCell id="b6IO7Tw6n1hfaN_o9Tpw-29" value="- eventosHistorial: List&lt;Evento&gt;" style="text;align=left;verticalAlign=top;spacingLeft=4;spacingRight=4;overflow=hidden;rotatable=0;points=[[0,0.5],[1,0.5]];portConstraint=eastwest;rounded=0;shadow=0;html=0;" parent="b6IO7Tw6n1hfaN_o9Tpw-25" vertex="1">
          <mxGeometry y="104" width="180" height="26" as="geometry" />
        </mxCell>
        <mxCell id="b6IO7Tw6n1hfaN_o9Tpw-30" value="" style="line;html=1;strokeWidth=1;align=left;verticalAlign=middle;spacingTop=-1;spacingLeft=3;spacingRight=3;rotatable=0;labelPosition=right;points=[];portConstraint=eastwest;" parent="b6IO7Tw6n1hfaN_o9Tpw-25" vertex="1">
          <mxGeometry y="130" width="180" height="8" as="geometry" />
        </mxCell>
        <mxCell id="JpKr2Qf1cNr2t3Nfq3L3-32" value="+ Constructores" style="text;align=left;verticalAlign=top;spacingLeft=4;spacingRight=4;overflow=hidden;rotatable=0;points=[[0,0.5],[1,0.5]];portConstraint=eastwest;" parent="b6IO7Tw6n1hfaN_o9Tpw-25" vertex="1">
          <mxGeometry y="138" width="180" height="26" as="geometry" />
        </mxCell>
        <mxCell id="b6IO7Tw6n1hfaN_o9Tpw-31" value="+ getters&amp;setters" style="text;align=left;verticalAlign=top;spacingLeft=4;spacingRight=4;overflow=hidden;rotatable=0;points=[[0,0.5],[1,0.5]];portConstraint=eastwest;" parent="b6IO7Tw6n1hfaN_o9Tpw-25" vertex="1">
          <mxGeometry y="164" width="180" height="26" as="geometry" />
        </mxCell>
        <mxCell id="b6IO7Tw6n1hfaN_o9Tpw-32" value="ComidaEnum&#xa;&lt;Enum&gt;" style="swimlane;fontStyle=3;align=center;verticalAlign=top;childLayout=stackLayout;horizontal=1;startSize=40;horizontalStack=0;resizeParent=1;resizeLast=0;collapsible=1;marginBottom=0;rounded=0;shadow=0;strokeWidth=1;" parent="WIyWlLk6GJQsqaUBKTNV-1" vertex="1">
          <mxGeometry x="279" width="270" height="180" as="geometry">
            <mxRectangle x="230" y="140" width="160" height="26" as="alternateBounds" />
          </mxGeometry>
        </mxCell>
        <mxCell id="b6IO7Tw6n1hfaN_o9Tpw-33" value="+ ITALIANA" style="text;align=left;verticalAlign=top;spacingLeft=4;spacingRight=4;overflow=hidden;rotatable=0;points=[[0,0.5],[1,0.5]];portConstraint=eastwest;" parent="b6IO7Tw6n1hfaN_o9Tpw-32" vertex="1">
          <mxGeometry y="40" width="270" height="26" as="geometry" />
        </mxCell>
        <mxCell id="b6IO7Tw6n1hfaN_o9Tpw-34" value="+ MEXICANA" style="text;align=left;verticalAlign=top;spacingLeft=4;spacingRight=4;overflow=hidden;rotatable=0;points=[[0,0.5],[1,0.5]];portConstraint=eastwest;" parent="b6IO7Tw6n1hfaN_o9Tpw-32" vertex="1">
          <mxGeometry y="66" width="270" height="26" as="geometry" />
        </mxCell>
        <mxCell id="b6IO7Tw6n1hfaN_o9Tpw-35" value="+ VEGANA" style="text;align=left;verticalAlign=top;spacingLeft=4;spacingRight=4;overflow=hidden;rotatable=0;points=[[0,0.5],[1,0.5]];portConstraint=eastwest;" parent="b6IO7Tw6n1hfaN_o9Tpw-32" vertex="1">
          <mxGeometry y="92" width="270" height="26" as="geometry" />
        </mxCell>
        <mxCell id="wT4c7gh8vurKFUiNGdvU-6" value="" style="line;html=1;strokeWidth=1;align=left;verticalAlign=middle;spacingTop=-1;spacingLeft=3;spacingRight=3;rotatable=0;labelPosition=right;points=[];portConstraint=eastwest;" parent="b6IO7Tw6n1hfaN_o9Tpw-32" vertex="1">
          <mxGeometry y="118" width="270" height="8" as="geometry" />
        </mxCell>
        <mxCell id="wT4c7gh8vurKFUiNGdvU-7" value="+ elegirIntereses(List&lt;ComidaEnum&gt; intereses,&#xa; Scanner sc): void" style="text;align=left;verticalAlign=top;spacingLeft=4;spacingRight=4;overflow=hidden;rotatable=0;points=[[0,0.5],[1,0.5]];portConstraint=eastwest;rounded=0;shadow=0;html=0;fontStyle=4" parent="b6IO7Tw6n1hfaN_o9Tpw-32" vertex="1">
          <mxGeometry y="126" width="270" height="54" as="geometry" />
        </mxCell>
        <mxCell id="b6IO7Tw6n1hfaN_o9Tpw-36" value="Reseña" style="swimlane;fontStyle=1;align=center;verticalAlign=top;childLayout=stackLayout;horizontal=1;startSize=26;horizontalStack=0;resizeParent=1;resizeLast=0;collapsible=1;marginBottom=0;rounded=0;shadow=0;strokeWidth=2;" parent="WIyWlLk6GJQsqaUBKTNV-1" vertex="1">
          <mxGeometry x="324" y="490" width="180" height="216" as="geometry">
            <mxRectangle x="230" y="140" width="160" height="26" as="alternateBounds" />
          </mxGeometry>
        </mxCell>
        <mxCell id="b6IO7Tw6n1hfaN_o9Tpw-37" value="- id: UUID" style="text;align=left;verticalAlign=top;spacingLeft=4;spacingRight=4;overflow=hidden;rotatable=0;points=[[0,0.5],[1,0.5]];portConstraint=eastwest;" parent="b6IO7Tw6n1hfaN_o9Tpw-36" vertex="1">
          <mxGeometry y="26" width="180" height="26" as="geometry" />
        </mxCell>
        <mxCell id="b6IO7Tw6n1hfaN_o9Tpw-38" value="- evento: Evento" style="text;align=left;verticalAlign=top;spacingLeft=4;spacingRight=4;overflow=hidden;rotatable=0;points=[[0,0.5],[1,0.5]];portConstraint=eastwest;rounded=0;shadow=0;html=0;" parent="b6IO7Tw6n1hfaN_o9Tpw-36" vertex="1">
          <mxGeometry y="52" width="180" height="26" as="geometry" />
        </mxCell>
        <mxCell id="b6IO7Tw6n1hfaN_o9Tpw-39" value="- participante: Participante" style="text;align=left;verticalAlign=top;spacingLeft=4;spacingRight=4;overflow=hidden;rotatable=0;points=[[0,0.5],[1,0.5]];portConstraint=eastwest;rounded=0;shadow=0;html=0;" parent="b6IO7Tw6n1hfaN_o9Tpw-36" vertex="1">
          <mxGeometry y="78" width="180" height="26" as="geometry" />
        </mxCell>
        <mxCell id="b6IO7Tw6n1hfaN_o9Tpw-40" value="- calificacion: CalificacionEnum" style="text;align=left;verticalAlign=top;spacingLeft=4;spacingRight=4;overflow=hidden;rotatable=0;points=[[0,0.5],[1,0.5]];portConstraint=eastwest;rounded=0;shadow=0;html=0;" parent="b6IO7Tw6n1hfaN_o9Tpw-36" vertex="1">
          <mxGeometry y="104" width="180" height="26" as="geometry" />
        </mxCell>
        <mxCell id="b6IO7Tw6n1hfaN_o9Tpw-60" value="- comentario: String" style="text;align=left;verticalAlign=top;spacingLeft=4;spacingRight=4;overflow=hidden;rotatable=0;points=[[0,0.5],[1,0.5]];portConstraint=eastwest;rounded=0;shadow=0;html=0;" parent="b6IO7Tw6n1hfaN_o9Tpw-36" vertex="1">
          <mxGeometry y="130" width="180" height="26" as="geometry" />
        </mxCell>
        <mxCell id="b6IO7Tw6n1hfaN_o9Tpw-41" value="" style="line;html=1;strokeWidth=1;align=left;verticalAlign=middle;spacingTop=-1;spacingLeft=3;spacingRight=3;rotatable=0;labelPosition=right;points=[];portConstraint=eastwest;" parent="b6IO7Tw6n1hfaN_o9Tpw-36" vertex="1">
          <mxGeometry y="156" width="180" height="8" as="geometry" />
        </mxCell>
        <mxCell id="JpKr2Qf1cNr2t3Nfq3L3-33" value="+ Constructores" style="text;align=left;verticalAlign=top;spacingLeft=4;spacingRight=4;overflow=hidden;rotatable=0;points=[[0,0.5],[1,0.5]];portConstraint=eastwest;" parent="b6IO7Tw6n1hfaN_o9Tpw-36" vertex="1">
          <mxGeometry y="164" width="180" height="26" as="geometry" />
        </mxCell>
        <mxCell id="b6IO7Tw6n1hfaN_o9Tpw-42" value="+ getters&amp;setters" style="text;align=left;verticalAlign=top;spacingLeft=4;spacingRight=4;overflow=hidden;rotatable=0;points=[[0,0.5],[1,0.5]];portConstraint=eastwest;" parent="b6IO7Tw6n1hfaN_o9Tpw-36" vertex="1">
          <mxGeometry y="190" width="180" height="26" as="geometry" />
        </mxCell>
        <mxCell id="b6IO7Tw6n1hfaN_o9Tpw-43" value="CalificacionEnum&#xa;&lt;Enum&gt;" style="swimlane;fontStyle=3;align=center;verticalAlign=top;childLayout=stackLayout;horizontal=1;startSize=40;horizontalStack=0;resizeParent=1;resizeLast=0;collapsible=1;marginBottom=0;rounded=0;shadow=0;strokeWidth=1;" parent="WIyWlLk6GJQsqaUBKTNV-1" vertex="1">
          <mxGeometry x="280" y="780" width="280" height="204" as="geometry">
            <mxRectangle x="230" y="140" width="160" height="26" as="alternateBounds" />
          </mxGeometry>
        </mxCell>
        <mxCell id="b6IO7Tw6n1hfaN_o9Tpw-44" value="+ UNA_ESTRELLA" style="text;align=left;verticalAlign=top;spacingLeft=4;spacingRight=4;overflow=hidden;rotatable=0;points=[[0,0.5],[1,0.5]];portConstraint=eastwest;" parent="b6IO7Tw6n1hfaN_o9Tpw-43" vertex="1">
          <mxGeometry y="40" width="280" height="26" as="geometry" />
        </mxCell>
        <mxCell id="b6IO7Tw6n1hfaN_o9Tpw-45" value="+ DOS_ESTRELLAS" style="text;align=left;verticalAlign=top;spacingLeft=4;spacingRight=4;overflow=hidden;rotatable=0;points=[[0,0.5],[1,0.5]];portConstraint=eastwest;" parent="b6IO7Tw6n1hfaN_o9Tpw-43" vertex="1">
          <mxGeometry y="66" width="280" height="26" as="geometry" />
        </mxCell>
        <mxCell id="b6IO7Tw6n1hfaN_o9Tpw-47" value="+ TRES_ESTRELLAS" style="text;align=left;verticalAlign=top;spacingLeft=4;spacingRight=4;overflow=hidden;rotatable=0;points=[[0,0.5],[1,0.5]];portConstraint=eastwest;" parent="b6IO7Tw6n1hfaN_o9Tpw-43" vertex="1">
          <mxGeometry y="92" width="280" height="26" as="geometry" />
        </mxCell>
        <mxCell id="b6IO7Tw6n1hfaN_o9Tpw-48" value="+ CUATRO_ESTRELLAS" style="text;align=left;verticalAlign=top;spacingLeft=4;spacingRight=4;overflow=hidden;rotatable=0;points=[[0,0.5],[1,0.5]];portConstraint=eastwest;" parent="b6IO7Tw6n1hfaN_o9Tpw-43" vertex="1">
          <mxGeometry y="118" width="280" height="26" as="geometry" />
        </mxCell>
        <mxCell id="b6IO7Tw6n1hfaN_o9Tpw-49" value="+ CINCO_ESTRELLAS" style="text;align=left;verticalAlign=top;spacingLeft=4;spacingRight=4;overflow=hidden;rotatable=0;points=[[0,0.5],[1,0.5]];portConstraint=eastwest;" parent="b6IO7Tw6n1hfaN_o9Tpw-43" vertex="1">
          <mxGeometry y="144" width="280" height="26" as="geometry" />
        </mxCell>
        <mxCell id="j-wXI0DyIEltd6m72D1K-24" value="" style="line;html=1;strokeWidth=1;align=left;verticalAlign=middle;spacingTop=-1;spacingLeft=3;spacingRight=3;rotatable=0;labelPosition=right;points=[];portConstraint=eastwest;" parent="b6IO7Tw6n1hfaN_o9Tpw-43" vertex="1">
          <mxGeometry y="170" width="280" height="8" as="geometry" />
        </mxCell>
        <mxCell id="j-wXI0DyIEltd6m72D1K-25" value="+ elegirCalificacion(Scanner sc) CalificacionEnum" style="text;align=left;verticalAlign=top;spacingLeft=4;spacingRight=4;overflow=hidden;rotatable=0;points=[[0,0.5],[1,0.5]];portConstraint=eastwest;fontStyle=4" parent="b6IO7Tw6n1hfaN_o9Tpw-43" vertex="1">
          <mxGeometry y="178" width="280" height="26" as="geometry" />
        </mxCell>
        <mxCell id="b6IO7Tw6n1hfaN_o9Tpw-63" value="ChefServiceImpl" style="swimlane;fontStyle=1;align=center;verticalAlign=top;childLayout=stackLayout;horizontal=1;startSize=26;horizontalStack=0;resizeParent=1;resizeLast=0;collapsible=1;marginBottom=0;rounded=0;shadow=0;strokeWidth=1;" parent="WIyWlLk6GJQsqaUBKTNV-1" vertex="1">
          <mxGeometry x="-330" y="-190" width="200" height="220" as="geometry">
            <mxRectangle x="230" y="140" width="160" height="26" as="alternateBounds" />
          </mxGeometry>
        </mxCell>
        <mxCell id="b6IO7Tw6n1hfaN_o9Tpw-64" value="- chefs: List&lt;Chef&gt;" style="text;align=left;verticalAlign=top;spacingLeft=4;spacingRight=4;overflow=hidden;rotatable=0;points=[[0,0.5],[1,0.5]];portConstraint=eastwest;" parent="b6IO7Tw6n1hfaN_o9Tpw-63" vertex="1">
          <mxGeometry y="26" width="200" height="26" as="geometry" />
        </mxCell>
        <mxCell id="CMZCFLpozK9ag07zlBPE-0" value="- sc: Scanner" style="text;align=left;verticalAlign=top;spacingLeft=4;spacingRight=4;overflow=hidden;rotatable=0;points=[[0,0.5],[1,0.5]];portConstraint=eastwest;" parent="b6IO7Tw6n1hfaN_o9Tpw-63" vertex="1">
          <mxGeometry y="52" width="200" height="26" as="geometry" />
        </mxCell>
        <mxCell id="b6IO7Tw6n1hfaN_o9Tpw-68" value="" style="line;html=1;strokeWidth=1;align=left;verticalAlign=middle;spacingTop=-1;spacingLeft=3;spacingRight=3;rotatable=0;labelPosition=right;points=[];portConstraint=eastwest;" parent="b6IO7Tw6n1hfaN_o9Tpw-63" vertex="1">
          <mxGeometry y="78" width="200" height="8" as="geometry" />
        </mxCell>
        <mxCell id="b6IO7Tw6n1hfaN_o9Tpw-69" value="+ ChefServiceImpl(Scanner sc)" style="text;align=left;verticalAlign=top;spacingLeft=4;spacingRight=4;overflow=hidden;rotatable=0;points=[[0,0.5],[1,0.5]];portConstraint=eastwest;" parent="b6IO7Tw6n1hfaN_o9Tpw-63" vertex="1">
          <mxGeometry y="86" width="200" height="26" as="geometry" />
        </mxCell>
        <mxCell id="b6IO7Tw6n1hfaN_o9Tpw-82" value="+ asignarChef(Evento evento): void" style="text;align=left;verticalAlign=top;spacingLeft=4;spacingRight=4;overflow=hidden;rotatable=0;points=[[0,0.5],[1,0.5]];portConstraint=eastwest;" parent="b6IO7Tw6n1hfaN_o9Tpw-63" vertex="1">
          <mxGeometry y="112" width="200" height="26" as="geometry" />
        </mxCell>
        <mxCell id="tSSNcbEtWkNVCMvlj1k6-0" value="+ nuevoChef(): void" style="text;align=left;verticalAlign=top;spacingLeft=4;spacingRight=4;overflow=hidden;rotatable=0;points=[[0,0.5],[1,0.5]];portConstraint=eastwest;" parent="b6IO7Tw6n1hfaN_o9Tpw-63" vertex="1">
          <mxGeometry y="138" width="200" height="26" as="geometry" />
        </mxCell>
        <mxCell id="wT4c7gh8vurKFUiNGdvU-0" value="- existeChef(int dni): boolean" style="text;align=left;verticalAlign=top;spacingLeft=4;spacingRight=4;overflow=hidden;rotatable=0;points=[[0,0.5],[1,0.5]];portConstraint=eastwest;" parent="b6IO7Tw6n1hfaN_o9Tpw-63" vertex="1">
          <mxGeometry y="164" width="200" height="26" as="geometry" />
        </mxCell>
        <mxCell id="b6IO7Tw6n1hfaN_o9Tpw-81" value="- buscarChef(): Chef" style="text;align=left;verticalAlign=top;spacingLeft=4;spacingRight=4;overflow=hidden;rotatable=0;points=[[0,0.5],[1,0.5]];portConstraint=eastwest;" parent="b6IO7Tw6n1hfaN_o9Tpw-63" vertex="1">
          <mxGeometry y="190" width="200" height="26" as="geometry" />
        </mxCell>
        <mxCell id="b6IO7Tw6n1hfaN_o9Tpw-83" value="EventoServiceImpl" style="swimlane;fontStyle=1;align=center;verticalAlign=top;childLayout=stackLayout;horizontal=1;startSize=26;horizontalStack=0;resizeParent=1;resizeLast=0;collapsible=1;marginBottom=0;rounded=0;shadow=0;strokeWidth=1;" parent="WIyWlLk6GJQsqaUBKTNV-1" vertex="1">
          <mxGeometry x="-18.12" y="-190" width="246.25" height="250" as="geometry">
            <mxRectangle x="230" y="140" width="160" height="26" as="alternateBounds" />
          </mxGeometry>
        </mxCell>
        <mxCell id="b6IO7Tw6n1hfaN_o9Tpw-84" value="- eventos: List&lt;Evento&gt;" style="text;align=left;verticalAlign=top;spacingLeft=4;spacingRight=4;overflow=hidden;rotatable=0;points=[[0,0.5],[1,0.5]];portConstraint=eastwest;" parent="b6IO7Tw6n1hfaN_o9Tpw-83" vertex="1">
          <mxGeometry y="26" width="246.25" height="26" as="geometry" />
        </mxCell>
        <mxCell id="CMZCFLpozK9ag07zlBPE-2" value="- sc: Scanner" style="text;align=left;verticalAlign=top;spacingLeft=4;spacingRight=4;overflow=hidden;rotatable=0;points=[[0,0.5],[1,0.5]];portConstraint=eastwest;" parent="b6IO7Tw6n1hfaN_o9Tpw-83" vertex="1">
          <mxGeometry y="52" width="246.25" height="26" as="geometry" />
        </mxCell>
        <mxCell id="b6IO7Tw6n1hfaN_o9Tpw-85" value="" style="line;html=1;strokeWidth=1;align=left;verticalAlign=middle;spacingTop=-1;spacingLeft=3;spacingRight=3;rotatable=0;labelPosition=right;points=[];portConstraint=eastwest;" parent="b6IO7Tw6n1hfaN_o9Tpw-83" vertex="1">
          <mxGeometry y="78" width="246.25" height="8" as="geometry" />
        </mxCell>
        <mxCell id="tSSNcbEtWkNVCMvlj1k6-1" value="+ EventoServiceImpl(Scanner sc)" style="text;align=left;verticalAlign=top;spacingLeft=4;spacingRight=4;overflow=hidden;rotatable=0;points=[[0,0.5],[1,0.5]];portConstraint=eastwest;" parent="b6IO7Tw6n1hfaN_o9Tpw-83" vertex="1">
          <mxGeometry y="86" width="246.25" height="26" as="geometry" />
        </mxCell>
        <mxCell id="b6IO7Tw6n1hfaN_o9Tpw-86" value="+ crearEvento(): void" style="text;align=left;verticalAlign=top;spacingLeft=4;spacingRight=4;overflow=hidden;rotatable=0;points=[[0,0.5],[1,0.5]];portConstraint=eastwest;" parent="b6IO7Tw6n1hfaN_o9Tpw-83" vertex="1">
          <mxGeometry y="112" width="246.25" height="26" as="geometry" />
        </mxCell>
        <mxCell id="b6IO7Tw6n1hfaN_o9Tpw-96" value="+ exportarEventosLlenos(LocalDate fecha): void" style="text;align=left;verticalAlign=top;spacingLeft=4;spacingRight=4;overflow=hidden;rotatable=0;points=[[0,0.5],[1,0.5]];portConstraint=eastwest;" parent="b6IO7Tw6n1hfaN_o9Tpw-83" vertex="1">
          <mxGeometry y="138" width="246.25" height="26" as="geometry" />
        </mxCell>
        <mxCell id="b6IO7Tw6n1hfaN_o9Tpw-95" value="+ listarEventos(LocalDate fecha): void" style="text;align=left;verticalAlign=top;spacingLeft=4;spacingRight=4;overflow=hidden;rotatable=0;points=[[0,0.5],[1,0.5]];portConstraint=eastwest;" parent="b6IO7Tw6n1hfaN_o9Tpw-83" vertex="1">
          <mxGeometry y="164" width="246.25" height="26" as="geometry" />
        </mxCell>
        <mxCell id="wT4c7gh8vurKFUiNGdvU-13" value="+ buscarEvento(): Evento" style="text;align=left;verticalAlign=top;spacingLeft=4;spacingRight=4;overflow=hidden;rotatable=0;points=[[0,0.5],[1,0.5]];portConstraint=eastwest;" parent="b6IO7Tw6n1hfaN_o9Tpw-83" vertex="1">
          <mxGeometry y="190" width="246.25" height="26" as="geometry" />
        </mxCell>
        <mxCell id="b6IO7Tw6n1hfaN_o9Tpw-87" value="- eventoEstaLleno(Evento evento): boolean" style="text;align=left;verticalAlign=top;spacingLeft=4;spacingRight=4;overflow=hidden;rotatable=0;points=[[0,0.5],[1,0.5]];portConstraint=eastwest;" parent="b6IO7Tw6n1hfaN_o9Tpw-83" vertex="1">
          <mxGeometry y="216" width="246.25" height="26" as="geometry" />
        </mxCell>
        <mxCell id="b6IO7Tw6n1hfaN_o9Tpw-89" value="ParticipanteServiceImpl" style="swimlane;fontStyle=1;align=center;verticalAlign=top;childLayout=stackLayout;horizontal=1;startSize=26;horizontalStack=0;resizeParent=1;resizeLast=0;collapsible=1;marginBottom=0;rounded=0;shadow=0;strokeWidth=1;" parent="WIyWlLk6GJQsqaUBKTNV-1" vertex="1">
          <mxGeometry x="620" y="-180" width="370" height="320" as="geometry">
            <mxRectangle x="230" y="140" width="160" height="26" as="alternateBounds" />
          </mxGeometry>
        </mxCell>
        <mxCell id="b6IO7Tw6n1hfaN_o9Tpw-90" value="- participantes: List&lt;Participante&gt;" style="text;align=left;verticalAlign=top;spacingLeft=4;spacingRight=4;overflow=hidden;rotatable=0;points=[[0,0.5],[1,0.5]];portConstraint=eastwest;" parent="b6IO7Tw6n1hfaN_o9Tpw-89" vertex="1">
          <mxGeometry y="26" width="370" height="26" as="geometry" />
        </mxCell>
        <mxCell id="JpKr2Qf1cNr2t3Nfq3L3-0" value="- reseñas: List&lt;Reseña&gt;" style="text;align=left;verticalAlign=top;spacingLeft=4;spacingRight=4;overflow=hidden;rotatable=0;points=[[0,0.5],[1,0.5]];portConstraint=eastwest;" parent="b6IO7Tw6n1hfaN_o9Tpw-89" vertex="1">
          <mxGeometry y="52" width="370" height="26" as="geometry" />
        </mxCell>
        <mxCell id="CMZCFLpozK9ag07zlBPE-1" value="- sc: Scanner" style="text;align=left;verticalAlign=top;spacingLeft=4;spacingRight=4;overflow=hidden;rotatable=0;points=[[0,0.5],[1,0.5]];portConstraint=eastwest;" parent="b6IO7Tw6n1hfaN_o9Tpw-89" vertex="1">
          <mxGeometry y="78" width="370" height="26" as="geometry" />
        </mxCell>
        <mxCell id="b6IO7Tw6n1hfaN_o9Tpw-91" value="" style="line;html=1;strokeWidth=1;align=left;verticalAlign=middle;spacingTop=-1;spacingLeft=3;spacingRight=3;rotatable=0;labelPosition=right;points=[];portConstraint=eastwest;" parent="b6IO7Tw6n1hfaN_o9Tpw-89" vertex="1">
          <mxGeometry y="104" width="370" height="8" as="geometry" />
        </mxCell>
        <mxCell id="tSSNcbEtWkNVCMvlj1k6-2" value="+ ParticipanteServiceImpl(Scanner sc)" style="text;align=left;verticalAlign=top;spacingLeft=4;spacingRight=4;overflow=hidden;rotatable=0;points=[[0,0.5],[1,0.5]];portConstraint=eastwest;" parent="b6IO7Tw6n1hfaN_o9Tpw-89" vertex="1">
          <mxGeometry y="112" width="370" height="26" as="geometry" />
        </mxCell>
        <mxCell id="JpKr2Qf1cNr2t3Nfq3L3-1" value="+ crearReseña(Evento evento): void" style="text;align=left;verticalAlign=top;spacingLeft=4;spacingRight=4;overflow=hidden;rotatable=0;points=[[0,0.5],[1,0.5]];portConstraint=eastwest;" parent="b6IO7Tw6n1hfaN_o9Tpw-89" vertex="1">
          <mxGeometry y="138" width="370" height="26" as="geometry" />
        </mxCell>
        <mxCell id="b6IO7Tw6n1hfaN_o9Tpw-94" value="+ inscribirParticipante(Evento evento): void" style="text;align=left;verticalAlign=top;spacingLeft=4;spacingRight=4;overflow=hidden;rotatable=0;points=[[0,0.5],[1,0.5]];portConstraint=eastwest;" parent="b6IO7Tw6n1hfaN_o9Tpw-89" vertex="1">
          <mxGeometry y="164" width="370" height="26" as="geometry" />
        </mxCell>
        <mxCell id="j-wXI0DyIEltd6m72D1K-26" value="+ nuevoParticipante(): void" style="text;align=left;verticalAlign=top;spacingLeft=4;spacingRight=4;overflow=hidden;rotatable=0;points=[[0,0.5],[1,0.5]];portConstraint=eastwest;" parent="b6IO7Tw6n1hfaN_o9Tpw-89" vertex="1">
          <mxGeometry y="190" width="370" height="26" as="geometry" />
        </mxCell>
        <mxCell id="b6IO7Tw6n1hfaN_o9Tpw-93" value="- buscarParticipante(): Participante" style="text;align=left;verticalAlign=top;spacingLeft=4;spacingRight=4;overflow=hidden;rotatable=0;points=[[0,0.5],[1,0.5]];portConstraint=eastwest;" parent="b6IO7Tw6n1hfaN_o9Tpw-89" vertex="1">
          <mxGeometry y="216" width="370" height="26" as="geometry" />
        </mxCell>
        <mxCell id="wT4c7gh8vurKFUiNGdvU-8" value="- existeParticipanteEnEvento(Participante participante, Evento evento): boolean" style="text;align=left;verticalAlign=top;spacingLeft=4;spacingRight=4;overflow=hidden;rotatable=0;points=[[0,0.5],[1,0.5]];portConstraint=eastwest;" parent="b6IO7Tw6n1hfaN_o9Tpw-89" vertex="1">
          <mxGeometry y="242" width="370" height="26" as="geometry" />
        </mxCell>
        <mxCell id="b6IO7Tw6n1hfaN_o9Tpw-92" value="- yaExisteReseña(Evento evento, Participante participante): boolean" style="text;align=left;verticalAlign=top;spacingLeft=4;spacingRight=4;overflow=hidden;rotatable=0;points=[[0,0.5],[1,0.5]];portConstraint=eastwest;" parent="b6IO7Tw6n1hfaN_o9Tpw-89" vertex="1">
          <mxGeometry y="268" width="370" height="26" as="geometry" />
        </mxCell>
        <mxCell id="j-wXI0DyIEltd6m72D1K-27" value="- existeParticipante(int dni): boolean" style="text;align=left;verticalAlign=top;spacingLeft=4;spacingRight=4;overflow=hidden;rotatable=0;points=[[0,0.5],[1,0.5]];portConstraint=eastwest;" parent="b6IO7Tw6n1hfaN_o9Tpw-89" vertex="1">
          <mxGeometry y="294" width="370" height="26" as="geometry" />
        </mxCell>
        <mxCell id="b6IO7Tw6n1hfaN_o9Tpw-100" value="ChefService&#xa;&lt;Interface&gt;" style="swimlane;fontStyle=1;align=center;verticalAlign=top;childLayout=stackLayout;horizontal=1;startSize=43;horizontalStack=0;resizeParent=1;resizeLast=0;collapsible=1;marginBottom=0;rounded=0;shadow=0;strokeWidth=1;" parent="WIyWlLk6GJQsqaUBKTNV-1" vertex="1">
          <mxGeometry x="-335" y="-435.75" width="210" height="107.5" as="geometry">
            <mxRectangle x="230" y="140" width="160" height="26" as="alternateBounds" />
          </mxGeometry>
        </mxCell>
        <mxCell id="b6IO7Tw6n1hfaN_o9Tpw-103" value="+ nuevoChef(): void" style="text;align=left;verticalAlign=top;spacingLeft=4;spacingRight=4;overflow=hidden;rotatable=0;points=[[0,0.5],[1,0.5]];portConstraint=eastwest;" parent="b6IO7Tw6n1hfaN_o9Tpw-100" vertex="1">
          <mxGeometry y="43" width="210" height="26" as="geometry" />
        </mxCell>
        <mxCell id="b6IO7Tw6n1hfaN_o9Tpw-105" value="+ asignarChef(Evento evento): void" style="text;align=left;verticalAlign=top;spacingLeft=4;spacingRight=4;overflow=hidden;rotatable=0;points=[[0,0.5],[1,0.5]];portConstraint=eastwest;" parent="b6IO7Tw6n1hfaN_o9Tpw-100" vertex="1">
          <mxGeometry y="69" width="210" height="26" as="geometry" />
        </mxCell>
        <mxCell id="b6IO7Tw6n1hfaN_o9Tpw-107" value="EventoService&#xa;&lt;Interface&gt;" style="swimlane;fontStyle=1;align=center;verticalAlign=top;childLayout=stackLayout;horizontal=1;startSize=40;horizontalStack=0;resizeParent=1;resizeLast=0;collapsible=1;marginBottom=0;rounded=0;shadow=0;strokeWidth=1;" parent="WIyWlLk6GJQsqaUBKTNV-1" vertex="1">
          <mxGeometry x="-33.59" y="-435.75" width="277.18" height="144" as="geometry">
            <mxRectangle x="230" y="140" width="160" height="26" as="alternateBounds" />
          </mxGeometry>
        </mxCell>
        <mxCell id="b6IO7Tw6n1hfaN_o9Tpw-110" value="+ crearEvento(): void" style="text;align=left;verticalAlign=top;spacingLeft=4;spacingRight=4;overflow=hidden;rotatable=0;points=[[0,0.5],[1,0.5]];portConstraint=eastwest;" parent="b6IO7Tw6n1hfaN_o9Tpw-107" vertex="1">
          <mxGeometry y="40" width="277.18" height="26" as="geometry" />
        </mxCell>
        <mxCell id="j-wXI0DyIEltd6m72D1K-12" value="+ buscarEvento(): Evento" style="text;align=left;verticalAlign=top;spacingLeft=4;spacingRight=4;overflow=hidden;rotatable=0;points=[[0,0.5],[1,0.5]];portConstraint=eastwest;" parent="b6IO7Tw6n1hfaN_o9Tpw-107" vertex="1">
          <mxGeometry y="66" width="277.18" height="26" as="geometry" />
        </mxCell>
        <mxCell id="b6IO7Tw6n1hfaN_o9Tpw-112" value="+ listarEventos(LocalDate fecha): void" style="text;align=left;verticalAlign=top;spacingLeft=4;spacingRight=4;overflow=hidden;rotatable=0;points=[[0,0.5],[1,0.5]];portConstraint=eastwest;" parent="b6IO7Tw6n1hfaN_o9Tpw-107" vertex="1">
          <mxGeometry y="92" width="277.18" height="26" as="geometry" />
        </mxCell>
        <mxCell id="b6IO7Tw6n1hfaN_o9Tpw-113" value="+ exportarEventosLlenos(LocalDate fecha): void" style="text;align=left;verticalAlign=top;spacingLeft=4;spacingRight=4;overflow=hidden;rotatable=0;points=[[0,0.5],[1,0.5]];portConstraint=eastwest;" parent="b6IO7Tw6n1hfaN_o9Tpw-107" vertex="1">
          <mxGeometry y="118" width="277.18" height="26" as="geometry" />
        </mxCell>
        <mxCell id="b6IO7Tw6n1hfaN_o9Tpw-115" value="ParticipanteService&#xa;&lt;Interface&gt;" style="swimlane;fontStyle=1;align=center;verticalAlign=top;childLayout=stackLayout;horizontal=1;startSize=40;horizontalStack=0;resizeParent=1;resizeLast=0;collapsible=1;marginBottom=0;rounded=0;shadow=0;strokeWidth=1;" parent="WIyWlLk6GJQsqaUBKTNV-1" vertex="1">
          <mxGeometry x="330" y="-435.75" width="360" height="125.75" as="geometry">
            <mxRectangle x="230" y="140" width="160" height="26" as="alternateBounds" />
          </mxGeometry>
        </mxCell>
        <mxCell id="b6IO7Tw6n1hfaN_o9Tpw-118" value="+ nuevoParticipante(): void" style="text;align=left;verticalAlign=top;spacingLeft=4;spacingRight=4;overflow=hidden;rotatable=0;points=[[0,0.5],[1,0.5]];portConstraint=eastwest;" parent="b6IO7Tw6n1hfaN_o9Tpw-115" vertex="1">
          <mxGeometry y="40" width="360" height="26" as="geometry" />
        </mxCell>
        <mxCell id="b6IO7Tw6n1hfaN_o9Tpw-120" value="+ inscribirParticipante(Evento evento): void" style="text;align=left;verticalAlign=top;spacingLeft=4;spacingRight=4;overflow=hidden;rotatable=0;points=[[0,0.5],[1,0.5]];portConstraint=eastwest;" parent="b6IO7Tw6n1hfaN_o9Tpw-115" vertex="1">
          <mxGeometry y="66" width="360" height="26" as="geometry" />
        </mxCell>
        <mxCell id="CMZCFLpozK9ag07zlBPE-4" value="+ crearReseña(Evento evento): void" style="text;align=left;verticalAlign=top;spacingLeft=4;spacingRight=4;overflow=hidden;rotatable=0;points=[[0,0.5],[1,0.5]];portConstraint=eastwest;" parent="b6IO7Tw6n1hfaN_o9Tpw-115" vertex="1">
          <mxGeometry y="92" width="360" height="26" as="geometry" />
        </mxCell>
        <mxCell id="b6IO7Tw6n1hfaN_o9Tpw-133" value="MenuService&#xa;&lt;Interface&gt;" style="swimlane;fontStyle=1;align=center;verticalAlign=top;childLayout=stackLayout;horizontal=1;startSize=40;horizontalStack=0;resizeParent=1;resizeLast=0;collapsible=1;marginBottom=0;rounded=0;shadow=0;strokeWidth=1;" parent="WIyWlLk6GJQsqaUBKTNV-1" vertex="1">
          <mxGeometry x="-9.990000000000009" y="-1060" width="230" height="66" as="geometry">
            <mxRectangle x="230" y="140" width="160" height="26" as="alternateBounds" />
          </mxGeometry>
        </mxCell>
        <mxCell id="b6IO7Tw6n1hfaN_o9Tpw-134" value="+ mostrarMenu(): void" style="text;align=left;verticalAlign=top;spacingLeft=4;spacingRight=4;overflow=hidden;rotatable=0;points=[[0,0.5],[1,0.5]];portConstraint=eastwest;" parent="b6IO7Tw6n1hfaN_o9Tpw-133" vertex="1">
          <mxGeometry y="40" width="230" height="26" as="geometry" />
        </mxCell>
        <mxCell id="JpKr2Qf1cNr2t3Nfq3L3-9" value="MenuServiceImpl" style="swimlane;fontStyle=1;align=center;verticalAlign=top;childLayout=stackLayout;horizontal=1;startSize=26;horizontalStack=0;resizeParent=1;resizeLast=0;collapsible=1;marginBottom=0;rounded=0;shadow=0;strokeWidth=1;" parent="WIyWlLk6GJQsqaUBKTNV-1" vertex="1">
          <mxGeometry x="-59.99000000000001" y="-924" width="330" height="314" as="geometry">
            <mxRectangle x="230" y="140" width="160" height="26" as="alternateBounds" />
          </mxGeometry>
        </mxCell>
        <mxCell id="JpKr2Qf1cNr2t3Nfq3L3-10" value="- eventoService: EventoService" style="text;align=left;verticalAlign=top;spacingLeft=4;spacingRight=4;overflow=hidden;rotatable=0;points=[[0,0.5],[1,0.5]];portConstraint=eastwest;fontStyle=0" parent="JpKr2Qf1cNr2t3Nfq3L3-9" vertex="1">
          <mxGeometry y="26" width="330" height="26" as="geometry" />
        </mxCell>
        <mxCell id="JpKr2Qf1cNr2t3Nfq3L3-15" value="- chefService: ChefService" style="text;align=left;verticalAlign=top;spacingLeft=4;spacingRight=4;overflow=hidden;rotatable=0;points=[[0,0.5],[1,0.5]];portConstraint=eastwest;fontStyle=0" parent="JpKr2Qf1cNr2t3Nfq3L3-9" vertex="1">
          <mxGeometry y="52" width="330" height="26" as="geometry" />
        </mxCell>
        <mxCell id="JpKr2Qf1cNr2t3Nfq3L3-16" value="- participanteService: ParticipanteService" style="text;align=left;verticalAlign=top;spacingLeft=4;spacingRight=4;overflow=hidden;rotatable=0;points=[[0,0.5],[1,0.5]];portConstraint=eastwest;fontStyle=0" parent="JpKr2Qf1cNr2t3Nfq3L3-9" vertex="1">
          <mxGeometry y="78" width="330" height="26" as="geometry" />
        </mxCell>
        <mxCell id="CMZCFLpozK9ag07zlBPE-3" value="- sc: Scanner" style="text;align=left;verticalAlign=top;spacingLeft=4;spacingRight=4;overflow=hidden;rotatable=0;points=[[0,0.5],[1,0.5]];portConstraint=eastwest;" parent="JpKr2Qf1cNr2t3Nfq3L3-9" vertex="1">
          <mxGeometry y="104" width="330" height="26" as="geometry" />
        </mxCell>
        <mxCell id="JpKr2Qf1cNr2t3Nfq3L3-11" value="" style="line;html=1;strokeWidth=1;align=left;verticalAlign=middle;spacingTop=-1;spacingLeft=3;spacingRight=3;rotatable=0;labelPosition=right;points=[];portConstraint=eastwest;" parent="JpKr2Qf1cNr2t3Nfq3L3-9" vertex="1">
          <mxGeometry y="130" width="330" height="8" as="geometry" />
        </mxCell>
        <mxCell id="j-wXI0DyIEltd6m72D1K-47" value="+ MenuServiceImpl(EventoService eventoService,&#xa;                                ChefService chefService, &#xa;                                ParticipanteService participanteService, &#xa;                                Scanner sc)" style="text;align=left;verticalAlign=top;spacingLeft=4;spacingRight=4;overflow=hidden;rotatable=0;points=[[0,0.5],[1,0.5]];portConstraint=eastwest;" parent="JpKr2Qf1cNr2t3Nfq3L3-9" vertex="1">
          <mxGeometry y="138" width="330" height="72" as="geometry" />
        </mxCell>
        <mxCell id="b6IO7Tw6n1hfaN_o9Tpw-130" value="+ mostrarMenu(): void" style="text;align=left;verticalAlign=top;spacingLeft=4;spacingRight=4;overflow=hidden;rotatable=0;points=[[0,0.5],[1,0.5]];portConstraint=eastwest;" parent="JpKr2Qf1cNr2t3Nfq3L3-9" vertex="1">
          <mxGeometry y="210" width="330" height="26" as="geometry" />
        </mxCell>
        <mxCell id="j-wXI0DyIEltd6m72D1K-49" value="- gestionEvento(): void" style="text;align=left;verticalAlign=top;spacingLeft=4;spacingRight=4;overflow=hidden;rotatable=0;points=[[0,0.5],[1,0.5]];portConstraint=eastwest;" parent="JpKr2Qf1cNr2t3Nfq3L3-9" vertex="1">
          <mxGeometry y="236" width="330" height="26" as="geometry" />
        </mxCell>
        <mxCell id="j-wXI0DyIEltd6m72D1K-48" value="- gestionChef(): void" style="text;align=left;verticalAlign=top;spacingLeft=4;spacingRight=4;overflow=hidden;rotatable=0;points=[[0,0.5],[1,0.5]];portConstraint=eastwest;" parent="JpKr2Qf1cNr2t3Nfq3L3-9" vertex="1">
          <mxGeometry y="262" width="330" height="26" as="geometry" />
        </mxCell>
        <mxCell id="tSSNcbEtWkNVCMvlj1k6-3" value="- gestionParticipante(): void" style="text;align=left;verticalAlign=top;spacingLeft=4;spacingRight=4;overflow=hidden;rotatable=0;points=[[0,0.5],[1,0.5]];portConstraint=eastwest;" parent="JpKr2Qf1cNr2t3Nfq3L3-9" vertex="1">
          <mxGeometry y="288" width="330" height="26" as="geometry" />
        </mxCell>
        <mxCell id="j-wXI0DyIEltd6m72D1K-0" value="" style="endArrow=classic;html=1;rounded=0;" parent="WIyWlLk6GJQsqaUBKTNV-1" source="b6IO7Tw6n1hfaN_o9Tpw-63" target="b6IO7Tw6n1hfaN_o9Tpw-100" edge="1">
          <mxGeometry relative="1" as="geometry">
            <mxPoint x="-197.17911602209944" y="-122" as="sourcePoint" />
            <mxPoint x="-239.9967955801106" y="-184.5" as="targetPoint" />
          </mxGeometry>
        </mxCell>
        <mxCell id="j-wXI0DyIEltd6m72D1K-1" value="Implementa" style="edgeLabel;resizable=0;html=1;;align=center;verticalAlign=middle;" parent="j-wXI0DyIEltd6m72D1K-0" connectable="0" vertex="1">
          <mxGeometry relative="1" as="geometry" />
        </mxCell>
        <mxCell id="j-wXI0DyIEltd6m72D1K-6" value="" style="endArrow=classic;html=1;rounded=0;" parent="WIyWlLk6GJQsqaUBKTNV-1" source="b6IO7Tw6n1hfaN_o9Tpw-63" target="b6IO7Tw6n1hfaN_o9Tpw-4" edge="1">
          <mxGeometry relative="1" as="geometry">
            <mxPoint x="80" y="70" as="sourcePoint" />
            <mxPoint x="240" y="70" as="targetPoint" />
          </mxGeometry>
        </mxCell>
        <mxCell id="j-wXI0DyIEltd6m72D1K-9" value="*" style="edgeLabel;resizable=0;html=1;;align=right;verticalAlign=bottom;" parent="j-wXI0DyIEltd6m72D1K-6" connectable="0" vertex="1">
          <mxGeometry x="1" relative="1" as="geometry">
            <mxPoint x="8" y="-1" as="offset" />
          </mxGeometry>
        </mxCell>
        <mxCell id="j-wXI0DyIEltd6m72D1K-10" value="" style="endArrow=classic;html=1;rounded=0;" parent="WIyWlLk6GJQsqaUBKTNV-1" source="b6IO7Tw6n1hfaN_o9Tpw-4" target="b6IO7Tw6n1hfaN_o9Tpw-14" edge="1">
          <mxGeometry relative="1" as="geometry">
            <mxPoint x="-150" y="270" as="sourcePoint" />
            <mxPoint x="-122" y="350" as="targetPoint" />
          </mxGeometry>
        </mxCell>
        <mxCell id="j-wXI0DyIEltd6m72D1K-11" value="1" style="edgeLabel;resizable=0;html=1;;align=right;verticalAlign=bottom;" parent="j-wXI0DyIEltd6m72D1K-10" connectable="0" vertex="1">
          <mxGeometry x="1" relative="1" as="geometry">
            <mxPoint x="20" y="-6" as="offset" />
          </mxGeometry>
        </mxCell>
        <mxCell id="j-wXI0DyIEltd6m72D1K-15" value="" style="endArrow=classic;html=1;rounded=0;startArrow=classic;startFill=1;" parent="WIyWlLk6GJQsqaUBKTNV-1" source="b6IO7Tw6n1hfaN_o9Tpw-4" target="zkfFHV4jXpPFQw0GAbJ--0" edge="1">
          <mxGeometry relative="1" as="geometry">
            <mxPoint x="20" y="240" as="sourcePoint" />
            <mxPoint x="180" y="240" as="targetPoint" />
          </mxGeometry>
        </mxCell>
        <mxCell id="j-wXI0DyIEltd6m72D1K-17" value="1" style="edgeLabel;resizable=0;html=1;;align=left;verticalAlign=bottom;" parent="j-wXI0DyIEltd6m72D1K-15" connectable="0" vertex="1">
          <mxGeometry x="-1" relative="1" as="geometry">
            <mxPoint x="10" y="-7" as="offset" />
          </mxGeometry>
        </mxCell>
        <mxCell id="j-wXI0DyIEltd6m72D1K-18" value="*" style="edgeLabel;resizable=0;html=1;;align=right;verticalAlign=bottom;" parent="j-wXI0DyIEltd6m72D1K-15" connectable="0" vertex="1">
          <mxGeometry x="1" relative="1" as="geometry">
            <mxPoint x="-9" y="-4" as="offset" />
          </mxGeometry>
        </mxCell>
        <mxCell id="j-wXI0DyIEltd6m72D1K-20" value="" style="endArrow=classic;html=1;rounded=0;" parent="WIyWlLk6GJQsqaUBKTNV-1" source="b6IO7Tw6n1hfaN_o9Tpw-83" target="zkfFHV4jXpPFQw0GAbJ--0" edge="1">
          <mxGeometry relative="1" as="geometry">
            <mxPoint x="-138" y="120" as="sourcePoint" />
            <mxPoint x="-130" y="195" as="targetPoint" />
          </mxGeometry>
        </mxCell>
        <mxCell id="j-wXI0DyIEltd6m72D1K-21" value="*" style="edgeLabel;resizable=0;html=1;;align=right;verticalAlign=bottom;" parent="j-wXI0DyIEltd6m72D1K-20" connectable="0" vertex="1">
          <mxGeometry x="1" relative="1" as="geometry">
            <mxPoint x="8" y="-1" as="offset" />
          </mxGeometry>
        </mxCell>
        <mxCell id="j-wXI0DyIEltd6m72D1K-22" value="" style="endArrow=classic;html=1;rounded=0;" parent="WIyWlLk6GJQsqaUBKTNV-1" source="b6IO7Tw6n1hfaN_o9Tpw-83" target="b6IO7Tw6n1hfaN_o9Tpw-107" edge="1">
          <mxGeometry relative="1" as="geometry">
            <mxPoint x="-169" y="-100" as="sourcePoint" />
            <mxPoint x="-186" y="-192" as="targetPoint" />
          </mxGeometry>
        </mxCell>
        <mxCell id="j-wXI0DyIEltd6m72D1K-23" value="Implementa" style="edgeLabel;resizable=0;html=1;;align=center;verticalAlign=middle;" parent="j-wXI0DyIEltd6m72D1K-22" connectable="0" vertex="1">
          <mxGeometry relative="1" as="geometry" />
        </mxCell>
        <mxCell id="j-wXI0DyIEltd6m72D1K-28" value="" style="endArrow=classic;html=1;rounded=0;" parent="WIyWlLk6GJQsqaUBKTNV-1" source="b6IO7Tw6n1hfaN_o9Tpw-25" target="zkfFHV4jXpPFQw0GAbJ--0" edge="1">
          <mxGeometry relative="1" as="geometry">
            <mxPoint x="270" y="90" as="sourcePoint" />
            <mxPoint x="430" y="90" as="targetPoint" />
          </mxGeometry>
        </mxCell>
        <mxCell id="j-wXI0DyIEltd6m72D1K-31" value="*" style="edgeLabel;resizable=0;html=1;;align=right;verticalAlign=bottom;" parent="j-wXI0DyIEltd6m72D1K-28" connectable="0" vertex="1">
          <mxGeometry x="1" relative="1" as="geometry">
            <mxPoint x="10" y="-3" as="offset" />
          </mxGeometry>
        </mxCell>
        <mxCell id="j-wXI0DyIEltd6m72D1K-32" value="" style="endArrow=classic;html=1;rounded=0;" parent="WIyWlLk6GJQsqaUBKTNV-1" source="b6IO7Tw6n1hfaN_o9Tpw-36" target="zkfFHV4jXpPFQw0GAbJ--0" edge="1">
          <mxGeometry relative="1" as="geometry">
            <mxPoint x="470" y="254" as="sourcePoint" />
            <mxPoint x="320" y="303" as="targetPoint" />
          </mxGeometry>
        </mxCell>
        <mxCell id="j-wXI0DyIEltd6m72D1K-33" value="1" style="edgeLabel;resizable=0;html=1;;align=right;verticalAlign=bottom;" parent="j-wXI0DyIEltd6m72D1K-32" connectable="0" vertex="1">
          <mxGeometry x="1" relative="1" as="geometry">
            <mxPoint x="20" y="-1" as="offset" />
          </mxGeometry>
        </mxCell>
        <mxCell id="j-wXI0DyIEltd6m72D1K-34" value="" style="endArrow=classic;html=1;rounded=0;" parent="WIyWlLk6GJQsqaUBKTNV-1" source="b6IO7Tw6n1hfaN_o9Tpw-36" target="b6IO7Tw6n1hfaN_o9Tpw-25" edge="1">
          <mxGeometry relative="1" as="geometry">
            <mxPoint x="560" y="446" as="sourcePoint" />
            <mxPoint x="320" y="360" as="targetPoint" />
          </mxGeometry>
        </mxCell>
        <mxCell id="j-wXI0DyIEltd6m72D1K-35" value="1" style="edgeLabel;resizable=0;html=1;;align=right;verticalAlign=bottom;" parent="j-wXI0DyIEltd6m72D1K-34" connectable="0" vertex="1">
          <mxGeometry x="1" relative="1" as="geometry">
            <mxPoint x="-4" y="19" as="offset" />
          </mxGeometry>
        </mxCell>
        <mxCell id="j-wXI0DyIEltd6m72D1K-36" value="" style="endArrow=classic;html=1;rounded=0;" parent="WIyWlLk6GJQsqaUBKTNV-1" source="b6IO7Tw6n1hfaN_o9Tpw-36" target="b6IO7Tw6n1hfaN_o9Tpw-43" edge="1">
          <mxGeometry relative="1" as="geometry">
            <mxPoint x="560" y="446" as="sourcePoint" />
            <mxPoint x="320" y="360" as="targetPoint" />
          </mxGeometry>
        </mxCell>
        <mxCell id="j-wXI0DyIEltd6m72D1K-37" value="1" style="edgeLabel;resizable=0;html=1;;align=right;verticalAlign=bottom;" parent="j-wXI0DyIEltd6m72D1K-36" connectable="0" vertex="1">
          <mxGeometry x="1" relative="1" as="geometry">
            <mxPoint x="20" y="-1" as="offset" />
          </mxGeometry>
        </mxCell>
        <mxCell id="j-wXI0DyIEltd6m72D1K-38" value="" style="endArrow=classic;html=1;rounded=0;" parent="WIyWlLk6GJQsqaUBKTNV-1" source="b6IO7Tw6n1hfaN_o9Tpw-25" target="b6IO7Tw6n1hfaN_o9Tpw-32" edge="1">
          <mxGeometry relative="1" as="geometry">
            <mxPoint x="470" y="254" as="sourcePoint" />
            <mxPoint x="320" y="303" as="targetPoint" />
          </mxGeometry>
        </mxCell>
        <mxCell id="j-wXI0DyIEltd6m72D1K-39" value="*" style="edgeLabel;resizable=0;html=1;;align=right;verticalAlign=bottom;" parent="j-wXI0DyIEltd6m72D1K-38" connectable="0" vertex="1">
          <mxGeometry x="1" relative="1" as="geometry">
            <mxPoint y="30" as="offset" />
          </mxGeometry>
        </mxCell>
        <mxCell id="j-wXI0DyIEltd6m72D1K-40" value="" style="endArrow=classic;html=1;rounded=0;" parent="WIyWlLk6GJQsqaUBKTNV-1" source="b6IO7Tw6n1hfaN_o9Tpw-89" target="b6IO7Tw6n1hfaN_o9Tpw-25" edge="1">
          <mxGeometry relative="1" as="geometry">
            <mxPoint x="602" y="130" as="sourcePoint" />
            <mxPoint x="670" y="190" as="targetPoint" />
          </mxGeometry>
        </mxCell>
        <mxCell id="j-wXI0DyIEltd6m72D1K-41" value="*" style="edgeLabel;resizable=0;html=1;;align=right;verticalAlign=bottom;" parent="j-wXI0DyIEltd6m72D1K-40" connectable="0" vertex="1">
          <mxGeometry x="1" relative="1" as="geometry">
            <mxPoint x="10" y="-6" as="offset" />
          </mxGeometry>
        </mxCell>
        <mxCell id="j-wXI0DyIEltd6m72D1K-43" value="" style="endArrow=classic;html=1;rounded=0;" parent="WIyWlLk6GJQsqaUBKTNV-1" source="b6IO7Tw6n1hfaN_o9Tpw-89" target="b6IO7Tw6n1hfaN_o9Tpw-36" edge="1">
          <mxGeometry relative="1" as="geometry">
            <mxPoint x="920" y="108" as="sourcePoint" />
            <mxPoint x="650" y="196" as="targetPoint" />
          </mxGeometry>
        </mxCell>
        <mxCell id="j-wXI0DyIEltd6m72D1K-44" value="*" style="edgeLabel;resizable=0;html=1;;align=right;verticalAlign=bottom;" parent="j-wXI0DyIEltd6m72D1K-43" connectable="0" vertex="1">
          <mxGeometry x="1" relative="1" as="geometry">
            <mxPoint x="8" y="-12" as="offset" />
          </mxGeometry>
        </mxCell>
        <mxCell id="j-wXI0DyIEltd6m72D1K-45" value="" style="endArrow=classic;html=1;rounded=0;" parent="WIyWlLk6GJQsqaUBKTNV-1" source="b6IO7Tw6n1hfaN_o9Tpw-89" target="b6IO7Tw6n1hfaN_o9Tpw-115" edge="1">
          <mxGeometry relative="1" as="geometry">
            <mxPoint x="278" y="-230" as="sourcePoint" />
            <mxPoint x="293" y="-300" as="targetPoint" />
          </mxGeometry>
        </mxCell>
        <mxCell id="j-wXI0DyIEltd6m72D1K-46" value="Implementa" style="edgeLabel;resizable=0;html=1;;align=center;verticalAlign=middle;" parent="j-wXI0DyIEltd6m72D1K-45" connectable="0" vertex="1">
          <mxGeometry relative="1" as="geometry" />
        </mxCell>
        <mxCell id="j-wXI0DyIEltd6m72D1K-50" value="" style="endArrow=classic;html=1;rounded=0;" parent="WIyWlLk6GJQsqaUBKTNV-1" source="JpKr2Qf1cNr2t3Nfq3L3-9" target="b6IO7Tw6n1hfaN_o9Tpw-133" edge="1">
          <mxGeometry relative="1" as="geometry">
            <mxPoint x="115" y="-180" as="sourcePoint" />
            <mxPoint x="115" y="-282" as="targetPoint" />
          </mxGeometry>
        </mxCell>
        <mxCell id="j-wXI0DyIEltd6m72D1K-51" value="Implementa" style="edgeLabel;resizable=0;html=1;;align=center;verticalAlign=middle;" parent="j-wXI0DyIEltd6m72D1K-50" connectable="0" vertex="1">
          <mxGeometry relative="1" as="geometry" />
        </mxCell>
        <mxCell id="j-wXI0DyIEltd6m72D1K-56" value="" style="endArrow=classic;html=1;rounded=0;" parent="WIyWlLk6GJQsqaUBKTNV-1" source="JpKr2Qf1cNr2t3Nfq3L3-9" target="b6IO7Tw6n1hfaN_o9Tpw-100" edge="1">
          <mxGeometry relative="1" as="geometry">
            <mxPoint x="-220" y="440" as="sourcePoint" />
            <mxPoint x="-220" y="558" as="targetPoint" />
          </mxGeometry>
        </mxCell>
        <mxCell id="j-wXI0DyIEltd6m72D1K-57" value="1" style="edgeLabel;resizable=0;html=1;;align=right;verticalAlign=bottom;" parent="j-wXI0DyIEltd6m72D1K-56" connectable="0" vertex="1">
          <mxGeometry x="1" relative="1" as="geometry">
            <mxPoint x="3" y="-14" as="offset" />
          </mxGeometry>
        </mxCell>
        <mxCell id="j-wXI0DyIEltd6m72D1K-58" value="" style="endArrow=classic;html=1;rounded=0;" parent="WIyWlLk6GJQsqaUBKTNV-1" source="JpKr2Qf1cNr2t3Nfq3L3-9" target="b6IO7Tw6n1hfaN_o9Tpw-107" edge="1">
          <mxGeometry relative="1" as="geometry">
            <mxPoint x="-22" y="-600" as="sourcePoint" />
            <mxPoint x="-173" y="-426" as="targetPoint" />
          </mxGeometry>
        </mxCell>
        <mxCell id="j-wXI0DyIEltd6m72D1K-59" value="1" style="edgeLabel;resizable=0;html=1;;align=right;verticalAlign=bottom;" parent="j-wXI0DyIEltd6m72D1K-58" connectable="0" vertex="1">
          <mxGeometry x="1" relative="1" as="geometry">
            <mxPoint x="15" y="-14" as="offset" />
          </mxGeometry>
        </mxCell>
        <mxCell id="j-wXI0DyIEltd6m72D1K-60" value="" style="endArrow=classic;html=1;rounded=0;" parent="WIyWlLk6GJQsqaUBKTNV-1" source="JpKr2Qf1cNr2t3Nfq3L3-9" target="b6IO7Tw6n1hfaN_o9Tpw-115" edge="1">
          <mxGeometry relative="1" as="geometry">
            <mxPoint x="115" y="-600" as="sourcePoint" />
            <mxPoint x="115" y="-426" as="targetPoint" />
          </mxGeometry>
        </mxCell>
        <mxCell id="j-wXI0DyIEltd6m72D1K-61" value="1" style="edgeLabel;resizable=0;html=1;;align=right;verticalAlign=bottom;" parent="j-wXI0DyIEltd6m72D1K-60" connectable="0" vertex="1">
          <mxGeometry x="1" relative="1" as="geometry">
            <mxPoint x="2" y="-14" as="offset" />
          </mxGeometry>
        </mxCell>
        <mxCell id="5hb9PV5VGpY0ttYHjh-V-2" style="edgeStyle=orthogonalEdgeStyle;rounded=0;orthogonalLoop=1;jettySize=auto;html=1;entryX=0.5;entryY=0;entryDx=0;entryDy=0;endArrow=none;endFill=0;" parent="WIyWlLk6GJQsqaUBKTNV-1" source="5hb9PV5VGpY0ttYHjh-V-0" target="b6IO7Tw6n1hfaN_o9Tpw-133" edge="1">
          <mxGeometry relative="1" as="geometry" />
        </mxCell>
        <mxCell id="5hb9PV5VGpY0ttYHjh-V-0" value="App" style="swimlane;fontStyle=1;align=center;verticalAlign=top;childLayout=stackLayout;horizontal=1;startSize=40;horizontalStack=0;resizeParent=1;resizeLast=0;collapsible=1;marginBottom=0;rounded=0;shadow=0;strokeWidth=1;" parent="WIyWlLk6GJQsqaUBKTNV-1" vertex="1">
          <mxGeometry x="-10" y="-1190" width="230" height="66" as="geometry">
            <mxRectangle x="230" y="140" width="160" height="26" as="alternateBounds" />
          </mxGeometry>
        </mxCell>
        <mxCell id="5hb9PV5VGpY0ttYHjh-V-1" value="+ main(String[] args): void" style="text;align=left;verticalAlign=top;spacingLeft=4;spacingRight=4;overflow=hidden;rotatable=0;points=[[0,0.5],[1,0.5]];portConstraint=eastwest;fontStyle=4" parent="5hb9PV5VGpY0ttYHjh-V-0" vertex="1">
          <mxGeometry y="40" width="230" height="26" as="geometry" />
        </mxCell>
      </root>
    </mxGraphModel>
  </diagram>
</mxfile>
